<?xml version="1.0" encoding="utf-8" standalone="no"?>
<!DOCTYPE svg PUBLIC "-//W3C//DTD SVG 1.1//EN"
  "http://www.w3.org/Graphics/SVG/1.1/DTD/svg11.dtd">
<svg xmlns:xlink="http://www.w3.org/1999/xlink" width="368.925pt" height="363.718125pt" viewBox="0 0 368.925 363.718125" xmlns="http://www.w3.org/2000/svg" version="1.1">
 <metadata>
  <rdf:RDF xmlns:dc="http://purl.org/dc/elements/1.1/" xmlns:cc="http://creativecommons.org/ns#" xmlns:rdf="http://www.w3.org/1999/02/22-rdf-syntax-ns#">
   <cc:Work>
    <dc:type rdf:resource="http://purl.org/dc/dcmitype/StillImage"/>
    <dc:date>2026-01-28T13:48:39.864237</dc:date>
    <dc:format>image/svg+xml</dc:format>
    <dc:creator>
     <cc:Agent>
      <dc:title>Matplotlib v3.10.8, https://matplotlib.org/</dc:title>
     </cc:Agent>
    </dc:creator>
   </cc:Work>
  </rdf:RDF>
 </metadata>
 <defs>
  <style type="text/css">*{stroke-linejoin: round; stroke-linecap: butt}</style>
 </defs>
 <g id="figure_1">
  <g id="patch_1">
   <path d="M -0 363.718125 
L 368.925 363.718125 
L 368.925 0 
L -0 0 
z
" style="fill: #ffffff"/>
  </g>
  <g id="axes_1">
   <g id="patch_2">
    <path d="M 26.925 339.84 
L 361.725 339.84 
L 361.725 7.2 
L 26.925 7.2 
z
" style="fill: #ffffff"/>
   </g>
   <g id="PathCollection_1">
    <defs>
     <path id="m835c8197df" d="M 0 3 
C 0.795609 3 1.55874 2.683901 2.12132 2.12132 
C 2.683901 1.55874 3 0.795609 3 0 
C 3 -0.795609 2.683901 -1.55874 2.12132 -2.12132 
C 1.55874 -2.683901 0.795609 -3 0 -3 
C -0.795609 -3 -1.55874 -2.683901 -2.12132 -2.12132 
C -2.683901 -1.55874 -3 -0.795609 -3 0 
C -3 0.795609 -2.683901 1.55874 -2.12132 2.12132 
C -1.55874 2.683901 -0.795609 3 0 3 
z
" style="stroke: #1f77b4"/>
    </defs>
    <g clip-path="url(#p24dd0b17da)">
     <use xlink:href="#m835c8197df" x="90.841364" y="264.24" style="fill: #1f77b4; stroke: #1f77b4"/>
     <use xlink:href="#m835c8197df" x="139.539545" y="324.72" style="fill: #1f77b4; stroke: #1f77b4"/>
     <use xlink:href="#m835c8197df" x="346.506818" y="119.088" style="fill: #1f77b4; stroke: #1f77b4"/>
     <use xlink:href="#m835c8197df" x="297.808636" y="46.512" style="fill: #1f77b4; stroke: #1f77b4"/>
     <use xlink:href="#m835c8197df" x="42.143182" y="155.376" style="fill: #1f77b4; stroke: #1f77b4"/>
     <use xlink:href="#m835c8197df" x="200.412273" y="34.416" style="fill: #1f77b4; stroke: #1f77b4"/>
     <use xlink:href="#m835c8197df" x="176.063182" y="312.624" style="fill: #1f77b4; stroke: #1f77b4"/>
     <use xlink:href="#m835c8197df" x="127.365" y="288.432" style="fill: #1f77b4; stroke: #1f77b4"/>
     <use xlink:href="#m835c8197df" x="285.634091" y="300.528" style="fill: #1f77b4; stroke: #1f77b4"/>
     <use xlink:href="#m835c8197df" x="78.666818" y="300.528" style="fill: #1f77b4; stroke: #1f77b4"/>
     <use xlink:href="#m835c8197df" x="188.237727" y="179.568" style="fill: #1f77b4; stroke: #1f77b4"/>
     <use xlink:href="#m835c8197df" x="309.983182" y="143.28" style="fill: #1f77b4; stroke: #1f77b4"/>
     <use xlink:href="#m835c8197df" x="66.492273" y="167.472" style="fill: #1f77b4; stroke: #1f77b4"/>
     <use xlink:href="#m835c8197df" x="346.506818" y="264.24" style="fill: #1f77b4; stroke: #1f77b4"/>
     <use xlink:href="#m835c8197df" x="346.506818" y="131.184" style="fill: #1f77b4; stroke: #1f77b4"/>
     <use xlink:href="#m835c8197df" x="322.157727" y="191.664" style="fill: #1f77b4; stroke: #1f77b4"/>
     <use xlink:href="#m835c8197df" x="78.666818" y="179.568" style="fill: #1f77b4; stroke: #1f77b4"/>
     <use xlink:href="#m835c8197df" x="249.110455" y="46.512" style="fill: #1f77b4; stroke: #1f77b4"/>
     <use xlink:href="#m835c8197df" x="188.237727" y="300.528" style="fill: #1f77b4; stroke: #1f77b4"/>
     <use xlink:href="#m835c8197df" x="309.983182" y="312.624" style="fill: #1f77b4; stroke: #1f77b4"/>
     <use xlink:href="#m835c8197df" x="90.841364" y="22.32" style="fill: #1f77b4; stroke: #1f77b4"/>
     <use xlink:href="#m835c8197df" x="249.110455" y="215.856" style="fill: #1f77b4; stroke: #1f77b4"/>
     <use xlink:href="#m835c8197df" x="66.492273" y="252.144" style="fill: #1f77b4; stroke: #1f77b4"/>
     <use xlink:href="#m835c8197df" x="54.317727" y="143.28" style="fill: #1f77b4; stroke: #1f77b4"/>
     <use xlink:href="#m835c8197df" x="309.983182" y="240.048" style="fill: #1f77b4; stroke: #1f77b4"/>
     <use xlink:href="#m835c8197df" x="322.157727" y="191.664" style="fill: #1f77b4; stroke: #1f77b4"/>
     <use xlink:href="#m835c8197df" x="200.412273" y="70.704" style="fill: #1f77b4; stroke: #1f77b4"/>
     <use xlink:href="#m835c8197df" x="285.634091" y="155.376" style="fill: #1f77b4; stroke: #1f77b4"/>
     <use xlink:href="#m835c8197df" x="261.285" y="70.704" style="fill: #1f77b4; stroke: #1f77b4"/>
     <use xlink:href="#m835c8197df" x="54.317727" y="119.088" style="fill: #1f77b4; stroke: #1f77b4"/>
     <use xlink:href="#m835c8197df" x="285.634091" y="240.048" style="fill: #1f77b4; stroke: #1f77b4"/>
     <use xlink:href="#m835c8197df" x="261.285" y="167.472" style="fill: #1f77b4; stroke: #1f77b4"/>
     <use xlink:href="#m835c8197df" x="285.634091" y="300.528" style="fill: #1f77b4; stroke: #1f77b4"/>
     <use xlink:href="#m835c8197df" x="115.190455" y="203.76" style="fill: #1f77b4; stroke: #1f77b4"/>
     <use xlink:href="#m835c8197df" x="297.808636" y="119.088" style="fill: #1f77b4; stroke: #1f77b4"/>
     <use xlink:href="#m835c8197df" x="285.634091" y="191.664" style="fill: #1f77b4; stroke: #1f77b4"/>
     <use xlink:href="#m835c8197df" x="66.492273" y="70.704" style="fill: #1f77b4; stroke: #1f77b4"/>
     <use xlink:href="#m835c8197df" x="285.634091" y="324.72" style="fill: #1f77b4; stroke: #1f77b4"/>
     <use xlink:href="#m835c8197df" x="163.888636" y="131.184" style="fill: #1f77b4; stroke: #1f77b4"/>
     <use xlink:href="#m835c8197df" x="297.808636" y="155.376" style="fill: #1f77b4; stroke: #1f77b4"/>
     <use xlink:href="#m835c8197df" x="78.666818" y="240.048" style="fill: #1f77b4; stroke: #1f77b4"/>
     <use xlink:href="#m835c8197df" x="236.935909" y="252.144" style="fill: #1f77b4; stroke: #1f77b4"/>
     <use xlink:href="#m835c8197df" x="273.459545" y="215.856" style="fill: #1f77b4; stroke: #1f77b4"/>
     <use xlink:href="#m835c8197df" x="236.935909" y="34.416" style="fill: #1f77b4; stroke: #1f77b4"/>
     <use xlink:href="#m835c8197df" x="261.285" y="119.088" style="fill: #1f77b4; stroke: #1f77b4"/>
     <use xlink:href="#m835c8197df" x="90.841364" y="70.704" style="fill: #1f77b4; stroke: #1f77b4"/>
     <use xlink:href="#m835c8197df" x="42.143182" y="300.528" style="fill: #1f77b4; stroke: #1f77b4"/>
     <use xlink:href="#m835c8197df" x="127.365" y="46.512" style="fill: #1f77b4; stroke: #1f77b4"/>
     <use xlink:href="#m835c8197df" x="103.015909" y="167.472" style="fill: #1f77b4; stroke: #1f77b4"/>
     <use xlink:href="#m835c8197df" x="151.714091" y="240.048" style="fill: #1f77b4; stroke: #1f77b4"/>
     <use xlink:href="#m835c8197df" x="176.063182" y="252.144" style="fill: #1f77b4; stroke: #1f77b4"/>
     <use xlink:href="#m835c8197df" x="285.634091" y="22.32" style="fill: #1f77b4; stroke: #1f77b4"/>
     <use xlink:href="#m835c8197df" x="249.110455" y="46.512" style="fill: #1f77b4; stroke: #1f77b4"/>
     <use xlink:href="#m835c8197df" x="285.634091" y="312.624" style="fill: #1f77b4; stroke: #1f77b4"/>
     <use xlink:href="#m835c8197df" x="54.317727" y="252.144" style="fill: #1f77b4; stroke: #1f77b4"/>
     <use xlink:href="#m835c8197df" x="127.365" y="252.144" style="fill: #1f77b4; stroke: #1f77b4"/>
     <use xlink:href="#m835c8197df" x="54.317727" y="167.472" style="fill: #1f77b4; stroke: #1f77b4"/>
     <use xlink:href="#m835c8197df" x="103.015909" y="58.608" style="fill: #1f77b4; stroke: #1f77b4"/>
     <use xlink:href="#m835c8197df" x="273.459545" y="34.416" style="fill: #1f77b4; stroke: #1f77b4"/>
     <use xlink:href="#m835c8197df" x="297.808636" y="264.24" style="fill: #1f77b4; stroke: #1f77b4"/>
     <use xlink:href="#m835c8197df" x="103.015909" y="155.376" style="fill: #1f77b4; stroke: #1f77b4"/>
     <use xlink:href="#m835c8197df" x="309.983182" y="203.76" style="fill: #1f77b4; stroke: #1f77b4"/>
     <use xlink:href="#m835c8197df" x="54.317727" y="288.432" style="fill: #1f77b4; stroke: #1f77b4"/>
     <use xlink:href="#m835c8197df" x="66.492273" y="106.992" style="fill: #1f77b4; stroke: #1f77b4"/>
     <use xlink:href="#m835c8197df" x="322.157727" y="191.664" style="fill: #1f77b4; stroke: #1f77b4"/>
     <use xlink:href="#m835c8197df" x="188.237727" y="203.76" style="fill: #1f77b4; stroke: #1f77b4"/>
     <use xlink:href="#m835c8197df" x="163.888636" y="119.088" style="fill: #1f77b4; stroke: #1f77b4"/>
     <use xlink:href="#m835c8197df" x="212.586818" y="240.048" style="fill: #1f77b4; stroke: #1f77b4"/>
     <use xlink:href="#m835c8197df" x="66.492273" y="167.472" style="fill: #1f77b4; stroke: #1f77b4"/>
     <use xlink:href="#m835c8197df" x="188.237727" y="119.088" style="fill: #1f77b4; stroke: #1f77b4"/>
     <use xlink:href="#m835c8197df" x="139.539545" y="70.704" style="fill: #1f77b4; stroke: #1f77b4"/>
     <use xlink:href="#m835c8197df" x="236.935909" y="119.088" style="fill: #1f77b4; stroke: #1f77b4"/>
     <use xlink:href="#m835c8197df" x="309.983182" y="264.24" style="fill: #1f77b4; stroke: #1f77b4"/>
     <use xlink:href="#m835c8197df" x="334.332273" y="143.28" style="fill: #1f77b4; stroke: #1f77b4"/>
     <use xlink:href="#m835c8197df" x="212.586818" y="46.512" style="fill: #1f77b4; stroke: #1f77b4"/>
     <use xlink:href="#m835c8197df" x="297.808636" y="276.336" style="fill: #1f77b4; stroke: #1f77b4"/>
     <use xlink:href="#m835c8197df" x="176.063182" y="34.416" style="fill: #1f77b4; stroke: #1f77b4"/>
     <use xlink:href="#m835c8197df" x="236.935909" y="179.568" style="fill: #1f77b4; stroke: #1f77b4"/>
     <use xlink:href="#m835c8197df" x="212.586818" y="155.376" style="fill: #1f77b4; stroke: #1f77b4"/>
     <use xlink:href="#m835c8197df" x="176.063182" y="34.416" style="fill: #1f77b4; stroke: #1f77b4"/>
     <use xlink:href="#m835c8197df" x="78.666818" y="264.24" style="fill: #1f77b4; stroke: #1f77b4"/>
     <use xlink:href="#m835c8197df" x="322.157727" y="227.952" style="fill: #1f77b4; stroke: #1f77b4"/>
     <use xlink:href="#m835c8197df" x="346.506818" y="215.856" style="fill: #1f77b4; stroke: #1f77b4"/>
     <use xlink:href="#m835c8197df" x="139.539545" y="94.896" style="fill: #1f77b4; stroke: #1f77b4"/>
     <use xlink:href="#m835c8197df" x="176.063182" y="167.472" style="fill: #1f77b4; stroke: #1f77b4"/>
     <use xlink:href="#m835c8197df" x="103.015909" y="215.856" style="fill: #1f77b4; stroke: #1f77b4"/>
     <use xlink:href="#m835c8197df" x="115.190455" y="203.76" style="fill: #1f77b4; stroke: #1f77b4"/>
     <use xlink:href="#m835c8197df" x="163.888636" y="106.992" style="fill: #1f77b4; stroke: #1f77b4"/>
     <use xlink:href="#m835c8197df" x="249.110455" y="203.76" style="fill: #1f77b4; stroke: #1f77b4"/>
     <use xlink:href="#m835c8197df" x="90.841364" y="131.184" style="fill: #1f77b4; stroke: #1f77b4"/>
     <use xlink:href="#m835c8197df" x="249.110455" y="34.416" style="fill: #1f77b4; stroke: #1f77b4"/>
     <use xlink:href="#m835c8197df" x="115.190455" y="58.608" style="fill: #1f77b4; stroke: #1f77b4"/>
     <use xlink:href="#m835c8197df" x="151.714091" y="106.992" style="fill: #1f77b4; stroke: #1f77b4"/>
     <use xlink:href="#m835c8197df" x="334.332273" y="324.72" style="fill: #1f77b4; stroke: #1f77b4"/>
     <use xlink:href="#m835c8197df" x="212.586818" y="179.568" style="fill: #1f77b4; stroke: #1f77b4"/>
     <use xlink:href="#m835c8197df" x="309.983182" y="227.952" style="fill: #1f77b4; stroke: #1f77b4"/>
     <use xlink:href="#m835c8197df" x="261.285" y="22.32" style="fill: #1f77b4; stroke: #1f77b4"/>
     <use xlink:href="#m835c8197df" x="90.841364" y="94.896" style="fill: #1f77b4; stroke: #1f77b4"/>
     <use xlink:href="#m835c8197df" x="103.015909" y="46.512" style="fill: #1f77b4; stroke: #1f77b4"/>
     <use xlink:href="#m835c8197df" x="151.714091" y="155.376" style="fill: #1f77b4; stroke: #1f77b4"/>
    </g>
   </g>
   <g id="matplotlib.axis_1">
    <g id="xtick_1">
     <g id="line2d_1">
      <defs>
       <path id="mfab184af7e" d="M 0 0 
L 0 3.5 
" style="stroke: #000000; stroke-width: 0.8"/>
      </defs>
      <g>
       <use xlink:href="#mfab184af7e" x="42.143182" y="339.84" style="stroke: #000000; stroke-width: 0.8"/>
      </g>
     </g>
     <g id="text_1">
      <!-- 0 -->
      <g transform="translate(38.961932 354.438437) scale(0.1 -0.1)">
       <defs>
        <path id="DejaVuSans-30" d="M 2034 4250 
Q 1547 4250 1301 3770 
Q 1056 3291 1056 2328 
Q 1056 1369 1301 889 
Q 1547 409 2034 409 
Q 2525 409 2770 889 
Q 3016 1369 3016 2328 
Q 3016 3291 2770 3770 
Q 2525 4250 2034 4250 
z
M 2034 4750 
Q 2819 4750 3233 4129 
Q 3647 3509 3647 2328 
Q 3647 1150 3233 529 
Q 2819 -91 2034 -91 
Q 1250 -91 836 529 
Q 422 1150 422 2328 
Q 422 3509 836 4129 
Q 1250 4750 2034 4750 
z
" transform="scale(0.015625)"/>
       </defs>
       <use xlink:href="#DejaVuSans-30"/>
      </g>
     </g>
    </g>
    <g id="xtick_2">
     <g id="line2d_2">
      <g>
       <use xlink:href="#mfab184af7e" x="103.015909" y="339.84" style="stroke: #000000; stroke-width: 0.8"/>
      </g>
     </g>
     <g id="text_2">
      <!-- 5 -->
      <g transform="translate(99.834659 354.438437) scale(0.1 -0.1)">
       <defs>
        <path id="DejaVuSans-35" d="M 691 4666 
L 3169 4666 
L 3169 4134 
L 1269 4134 
L 1269 2991 
Q 1406 3038 1543 3061 
Q 1681 3084 1819 3084 
Q 2600 3084 3056 2656 
Q 3513 2228 3513 1497 
Q 3513 744 3044 326 
Q 2575 -91 1722 -91 
Q 1428 -91 1123 -41 
Q 819 9 494 109 
L 494 744 
Q 775 591 1075 516 
Q 1375 441 1709 441 
Q 2250 441 2565 725 
Q 2881 1009 2881 1497 
Q 2881 1984 2565 2268 
Q 2250 2553 1709 2553 
Q 1456 2553 1204 2497 
Q 953 2441 691 2322 
L 691 4666 
z
" transform="scale(0.015625)"/>
       </defs>
       <use xlink:href="#DejaVuSans-35"/>
      </g>
     </g>
    </g>
    <g id="xtick_3">
     <g id="line2d_3">
      <g>
       <use xlink:href="#mfab184af7e" x="163.888636" y="339.84" style="stroke: #000000; stroke-width: 0.8"/>
      </g>
     </g>
     <g id="text_3">
      <!-- 10 -->
      <g transform="translate(157.526136 354.438437) scale(0.1 -0.1)">
       <defs>
        <path id="DejaVuSans-31" d="M 794 531 
L 1825 531 
L 1825 4091 
L 703 3866 
L 703 4441 
L 1819 4666 
L 2450 4666 
L 2450 531 
L 3481 531 
L 3481 0 
L 794 0 
L 794 531 
z
" transform="scale(0.015625)"/>
       </defs>
       <use xlink:href="#DejaVuSans-31"/>
       <use xlink:href="#DejaVuSans-30" transform="translate(63.623047 0)"/>
      </g>
     </g>
    </g>
    <g id="xtick_4">
     <g id="line2d_4">
      <g>
       <use xlink:href="#mfab184af7e" x="224.761364" y="339.84" style="stroke: #000000; stroke-width: 0.8"/>
      </g>
     </g>
     <g id="text_4">
      <!-- 15 -->
      <g transform="translate(218.398864 354.438437) scale(0.1 -0.1)">
       <use xlink:href="#DejaVuSans-31"/>
       <use xlink:href="#DejaVuSans-35" transform="translate(63.623047 0)"/>
      </g>
     </g>
    </g>
    <g id="xtick_5">
     <g id="line2d_5">
      <g>
       <use xlink:href="#mfab184af7e" x="285.634091" y="339.84" style="stroke: #000000; stroke-width: 0.8"/>
      </g>
     </g>
     <g id="text_5">
      <!-- 20 -->
      <g transform="translate(279.271591 354.438437) scale(0.1 -0.1)">
       <defs>
        <path id="DejaVuSans-32" d="M 1228 531 
L 3431 531 
L 3431 0 
L 469 0 
L 469 531 
Q 828 903 1448 1529 
Q 2069 2156 2228 2338 
Q 2531 2678 2651 2914 
Q 2772 3150 2772 3378 
Q 2772 3750 2511 3984 
Q 2250 4219 1831 4219 
Q 1534 4219 1204 4116 
Q 875 4013 500 3803 
L 500 4441 
Q 881 4594 1212 4672 
Q 1544 4750 1819 4750 
Q 2544 4750 2975 4387 
Q 3406 4025 3406 3419 
Q 3406 3131 3298 2873 
Q 3191 2616 2906 2266 
Q 2828 2175 2409 1742 
Q 1991 1309 1228 531 
z
" transform="scale(0.015625)"/>
       </defs>
       <use xlink:href="#DejaVuSans-32"/>
       <use xlink:href="#DejaVuSans-30" transform="translate(63.623047 0)"/>
      </g>
     </g>
    </g>
    <g id="xtick_6">
     <g id="line2d_6">
      <g>
       <use xlink:href="#mfab184af7e" x="346.506818" y="339.84" style="stroke: #000000; stroke-width: 0.8"/>
      </g>
     </g>
     <g id="text_6">
      <!-- 25 -->
      <g transform="translate(340.144318 354.438437) scale(0.1 -0.1)">
       <use xlink:href="#DejaVuSans-32"/>
       <use xlink:href="#DejaVuSans-35" transform="translate(63.623047 0)"/>
      </g>
     </g>
    </g>
   </g>
   <g id="matplotlib.axis_2">
    <g id="ytick_1">
     <g id="line2d_7">
      <defs>
       <path id="m62ef72facc" d="M 0 0 
L -3.5 0 
" style="stroke: #000000; stroke-width: 0.8"/>
      </defs>
      <g>
       <use xlink:href="#m62ef72facc" x="26.925" y="324.72" style="stroke: #000000; stroke-width: 0.8"/>
      </g>
     </g>
     <g id="text_7">
      <!-- 0 -->
      <g transform="translate(13.5625 328.519219) scale(0.1 -0.1)">
       <use xlink:href="#DejaVuSans-30"/>
      </g>
     </g>
    </g>
    <g id="ytick_2">
     <g id="line2d_8">
      <g>
       <use xlink:href="#m62ef72facc" x="26.925" y="264.24" style="stroke: #000000; stroke-width: 0.8"/>
      </g>
     </g>
     <g id="text_8">
      <!-- 5 -->
      <g transform="translate(13.5625 268.039219) scale(0.1 -0.1)">
       <use xlink:href="#DejaVuSans-35"/>
      </g>
     </g>
    </g>
    <g id="ytick_3">
     <g id="line2d_9">
      <g>
       <use xlink:href="#m62ef72facc" x="26.925" y="203.76" style="stroke: #000000; stroke-width: 0.8"/>
      </g>
     </g>
     <g id="text_9">
      <!-- 10 -->
      <g transform="translate(7.2 207.559219) scale(0.1 -0.1)">
       <use xlink:href="#DejaVuSans-31"/>
       <use xlink:href="#DejaVuSans-30" transform="translate(63.623047 0)"/>
      </g>
     </g>
    </g>
    <g id="ytick_4">
     <g id="line2d_10">
      <g>
       <use xlink:href="#m62ef72facc" x="26.925" y="143.28" style="stroke: #000000; stroke-width: 0.8"/>
      </g>
     </g>
     <g id="text_10">
      <!-- 15 -->
      <g transform="translate(7.2 147.079219) scale(0.1 -0.1)">
       <use xlink:href="#DejaVuSans-31"/>
       <use xlink:href="#DejaVuSans-35" transform="translate(63.623047 0)"/>
      </g>
     </g>
    </g>
    <g id="ytick_5">
     <g id="line2d_11">
      <g>
       <use xlink:href="#m62ef72facc" x="26.925" y="82.8" style="stroke: #000000; stroke-width: 0.8"/>
      </g>
     </g>
     <g id="text_11">
      <!-- 20 -->
      <g transform="translate(7.2 86.599219) scale(0.1 -0.1)">
       <use xlink:href="#DejaVuSans-32"/>
       <use xlink:href="#DejaVuSans-30" transform="translate(63.623047 0)"/>
      </g>
     </g>
    </g>
    <g id="ytick_6">
     <g id="line2d_12">
      <g>
       <use xlink:href="#m62ef72facc" x="26.925" y="22.32" style="stroke: #000000; stroke-width: 0.8"/>
      </g>
     </g>
     <g id="text_12">
      <!-- 25 -->
      <g transform="translate(7.2 26.119219) scale(0.1 -0.1)">
       <use xlink:href="#DejaVuSans-32"/>
       <use xlink:href="#DejaVuSans-35" transform="translate(63.623047 0)"/>
      </g>
     </g>
    </g>
   </g>
   <g id="patch_3">
    <path d="M 26.925 339.84 
L 26.925 7.2 
" style="fill: none; stroke: #000000; stroke-width: 0.8; stroke-linejoin: miter; stroke-linecap: square"/>
   </g>
   <g id="patch_4">
    <path d="M 361.725 339.84 
L 361.725 7.2 
" style="fill: none; stroke: #000000; stroke-width: 0.8; stroke-linejoin: miter; stroke-linecap: square"/>
   </g>
   <g id="patch_5">
    <path d="M 26.925 339.84 
L 361.725 339.84 
" style="fill: none; stroke: #000000; stroke-width: 0.8; stroke-linejoin: miter; stroke-linecap: square"/>
   </g>
   <g id="patch_6">
    <path d="M 26.925 7.2 
L 361.725 7.2 
" style="fill: none; stroke: #000000; stroke-width: 0.8; stroke-linejoin: miter; stroke-linecap: square"/>
   </g>
  </g>
 </g>
 <defs>
  <clipPath id="p24dd0b17da">
   <rect x="26.925" y="7.2" width="334.8" height="332.64"/>
  </clipPath>
 </defs>
</svg>
